<svg xmlns="http://www.w3.org/2000/svg" class="research-map" viewBox="0 0 814 560" role="img" aria-label="workforce architecture"><style>
 .map-edge{fill:none;stroke:var(--edge,#94a698);stroke-width:1.5}
 .map-arrow{fill:var(--edge,#94a698)}
 .map-card{fill:var(--surface,#fffefa);stroke:var(--line,#dce2d8);stroke-width:1}
 .map-icon-bg{fill:var(--soft,#edf1e7);stroke:none}
 .map-icon path{fill:none;stroke:var(--accent,#24634c);stroke-width:1.7;stroke-linejoin:round;stroke-linecap:round}
 .map-label{fill:var(--ink,#263e37);font:600 14px -apple-system,BlinkMacSystemFont,'Segoe UI',sans-serif}
 .map-role{fill:var(--muted,#5c7067);font:9px ui-monospace,Consolas,monospace;letter-spacing:.5px;text-transform:uppercase}
 </style><defs><marker id="workforce-architecture-arrow" viewBox="0 0 10 10" refX="9" refY="5" markerWidth="6" markerHeight="6" orient="auto"><path class="map-arrow" d="M0 1 9 5 0 9z"/></marker><marker id="workforce-architecture-arrow-back" viewBox="0 0 10 10" refX="1" refY="5" markerWidth="6" markerHeight="6" orient="auto"><path class="map-arrow" d="M9 1 0 5 9 9z"/></marker></defs><text class="map-role" x="32" y="25">14 parts · solid: flow · dotted: supporting path</text><path class="map-edge" data-from="U" data-to="UI" d="M188 94 C209 94 209 94 230 94" marker-end="url(#workforce-architecture-arrow)"/><path class="map-edge" data-from="UI" data-to="API" d="M386 94 C407 94 407 94 428 94" marker-end="url(#workforce-architecture-arrow)"/><path class="map-edge" data-from="API" data-to="AUTH" d="M584 94 C605 94 605 94 626 94" marker-end="url(#workforce-architecture-arrow)"/><path class="map-edge" data-from="AUTH" data-to="READ" d="M664 130 V166 H110 V188" marker-end="url(#workforce-architecture-arrow)"/><path class="map-edge" data-from="READ" data-to="DB" d="M118 260 C118 289 118 289 118 318" marker-end="url(#workforce-architecture-arrow)"/><path class="map-edge" data-from="DB" data-to="READ" d="M118 318 C118 289 118 289 118 260" marker-end="url(#workforce-architecture-arrow)"/><path class="map-edge" data-from="READ" data-to="UI" d="M188 224 C209 224 209 94 230 94" marker-end="url(#workforce-architecture-arrow)"/><path class="map-edge" data-from="AUTH" data-to="ACT" d="M704 130 C704 159 704 159 704 188" marker-end="url(#workforce-architecture-arrow)"/><path class="map-edge" data-from="ACT" data-to="LOCK" d="M704 260 C704 289 704 289 704 318" marker-end="url(#workforce-architecture-arrow)"/><path class="map-edge" data-from="LOCK" data-to="WRITE" d="M704 390 C704 419 704 419 704 448" marker-end="url(#workforce-architecture-arrow)"/><path class="map-edge" data-from="WRITE" data-to="AT" d="M626 484 C605 484 605 484 584 484" marker-end="url(#workforce-architecture-arrow)"/><path class="map-edge" data-from="AT" data-to="ECHO" d="M428 484 C407 484 407 354 386 354" marker-end="url(#workforce-architecture-arrow)"/><path class="map-edge" data-from="ECHO" data-to="DB" d="M230 354 C209 354 209 354 188 354" marker-end="url(#workforce-architecture-arrow)"/><path class="map-edge" data-from="AT" data-to="SYNC" d="M428 484 C407 484 407 484 386 484" marker-end="url(#workforce-architecture-arrow)"/><path class="map-edge" data-from="SYNC" data-to="DB" d="M230 484 C209 484 209 354 188 354" marker-end="url(#workforce-architecture-arrow)"/><path class="map-edge" data-from="KPI" data-to="DB" d="M110 448 C110 419 110 419 110 390" marker-end="url(#workforce-architecture-arrow)"/><path class="map-edge" data-from="HS" data-to="API" d="M506 188 C506 159 506 159 506 130" marker-end="url(#workforce-architecture-arrow)"/><g class="node map-part" id="flowchart-U-0" transform="translate(32 58)" data-card="true"><rect class="map-card" width="156" height="72" rx="12"/><rect class="map-icon-bg" x="12" y="20" width="32" height="32" rx="9"/><g class="map-icon" transform="translate(18 26) scale(.83)"><path d="M13 2 5 12h6l-1 10 9-12h-6z"/></g><text class="map-label" x="54" y="34">People</text><text class="map-role" x="54" y="51">entry</text></g><g class="node map-part" id="flowchart-UI-1" transform="translate(230 58)" data-card="true"><rect class="map-card" width="156" height="72" rx="12"/><rect class="map-icon-bg" x="12" y="20" width="32" height="32" rx="9"/><g class="map-icon" transform="translate(18 26) scale(.83)"><path d="M2 3h20v15H2zM8 22h8m-4-4v4"/></g><text class="map-label" x="54" y="34">Workforce app</text><text class="map-role" x="54" y="51">interface</text></g><g class="node map-part" id="flowchart-API-2" transform="translate(428 58)" data-card="true"><rect class="map-card" width="156" height="72" rx="12"/><rect class="map-icon-bg" x="12" y="20" width="32" height="32" rx="9"/><g class="map-icon" transform="translate(18 26) scale(.83)"><path d="m8 5-6 7 6 7m8-14 6 7-6 7m-2-17-4 20"/></g><text class="map-label" x="54" y="34">API</text><text class="map-role" x="54" y="51">compute</text></g><g class="node map-part" id="flowchart-AUTH-3" transform="translate(626 58)" data-card="true"><rect class="map-card" width="156" height="72" rx="12"/><rect class="map-icon-bg" x="12" y="20" width="32" height="32" rx="9"/><g class="map-icon" transform="translate(18 26) scale(.83)"><path d="M12 2v6m0 0H5v8m7-8h7v8M2 17l3 4 3-4m8 0 3 4 3-4"/></g><text class="map-label" x="54" y="34">Permissions</text><text class="map-role" x="54" y="51">decision</text></g><g class="node map-part" id="flowchart-HS-4" transform="translate(428 188)" data-card="true"><rect class="map-card" width="156" height="72" rx="12"/><rect class="map-icon-bg" x="12" y="20" width="32" height="32" rx="9"/><g class="map-icon" transform="translate(18 26) scale(.83)"><path d="M8 2v5m8-5v5M5 7h14v4a7 7 0 0 1-14 0zM12 18v4"/></g><text class="map-label" x="54" y="34">Hubstaff</text><text class="map-role" x="54" y="51">integration</text></g><g class="node map-part" id="flowchart-READ-5" transform="translate(32 188)" data-card="true"><rect class="map-card" width="156" height="72" rx="12"/><rect class="map-icon-bg" x="12" y="20" width="32" height="32" rx="9"/><g class="map-icon" transform="translate(18 26) scale(.83)"><path d="m8 5-6 7 6 7m8-14 6 7-6 7m-2-17-4 20"/></g><text class="map-label" x="54" y="34">Reporting</text><text class="map-role" x="54" y="51">compute</text></g><g class="node map-part" id="flowchart-DB-6" transform="translate(32 318)" data-card="true"><rect class="map-card" width="156" height="72" rx="12"/><rect class="map-icon-bg" x="12" y="20" width="32" height="32" rx="9"/><g class="map-icon" transform="translate(18 26) scale(.83)"><path d="M3 5c0-4 18-4 18 0s-18 4-18 0v14c0 4 18 4 18 0V5M3 12c0 4 18 4 18 0"/></g><text class="map-label" x="54" y="34">SQL mirror</text><text class="map-role" x="54" y="51">store</text></g><g class="node map-part" id="flowchart-KPI-7" transform="translate(32 448)" data-card="true"><rect class="map-card" width="156" height="72" rx="12"/><rect class="map-icon-bg" x="12" y="20" width="32" height="32" rx="9"/><g class="map-icon" transform="translate(18 26) scale(.83)"><path d="m8 5-6 7 6 7m8-14 6 7-6 7m-2-17-4 20"/></g><text class="map-label" x="54" y="34">KPI metrics</text><text class="map-role" x="54" y="51">compute</text></g><g class="node map-part" id="flowchart-ACT-8" transform="translate(626 188)" data-card="true"><rect class="map-card" width="156" height="72" rx="12"/><rect class="map-icon-bg" x="12" y="20" width="32" height="32" rx="9"/><g class="map-icon" transform="translate(18 26) scale(.83)"><path d="m8 5-6 7 6 7m8-14 6 7-6 7m-2-17-4 20"/></g><text class="map-label" x="54" y="34">Task actions</text><text class="map-role" x="54" y="51">compute</text></g><g class="node map-part" id="flowchart-LOCK-9" transform="translate(626 318)" data-card="true"><rect class="map-card" width="156" height="72" rx="12"/><rect class="map-icon-bg" x="12" y="20" width="32" height="32" rx="9"/><g class="map-icon" transform="translate(18 26) scale(.83)"><path d="M12 2v6m0 0H5v8m7-8h7v8M2 17l3 4 3-4m8 0 3 4 3-4"/></g><text class="map-label" x="54" y="34">Action lock</text><text class="map-role" x="54" y="51">decision</text></g><g class="node map-part" id="flowchart-WRITE-10" transform="translate(626 448)" data-card="true"><rect class="map-card" width="156" height="72" rx="12"/><rect class="map-icon-bg" x="12" y="20" width="32" height="32" rx="9"/><g class="map-icon" transform="translate(18 26) scale(.83)"><path d="M8 2v5m8-5v5M5 7h14v4a7 7 0 0 1-14 0zM12 18v4"/></g><text class="map-label" x="54" y="34">Writer</text><text class="map-role" x="54" y="51">integration</text></g><g class="node map-part" id="flowchart-AT-11" transform="translate(428 448)" data-card="true"><rect class="map-card" width="156" height="72" rx="12"/><rect class="map-icon-bg" x="12" y="20" width="32" height="32" rx="9"/><g class="map-icon" transform="translate(18 26) scale(.83)"><path d="M3 5c0-4 18-4 18 0s-18 4-18 0v14c0 4 18 4 18 0V5M3 12c0 4 18 4 18 0"/></g><text class="map-label" x="54" y="34">Airtable</text><text class="map-role" x="54" y="51">store</text></g><g class="node map-part" id="flowchart-ECHO-12" transform="translate(230 318)" data-card="true"><rect class="map-card" width="156" height="72" rx="12"/><rect class="map-icon-bg" x="12" y="20" width="32" height="32" rx="9"/><g class="map-icon" transform="translate(18 26) scale(.83)"><path d="m8 5-6 7 6 7m8-14 6 7-6 7m-2-17-4 20"/></g><text class="map-label" x="54" y="34">Refresh</text><text class="map-role" x="54" y="51">compute</text></g><g class="node map-part" id="flowchart-SYNC-13" transform="translate(230 448)" data-card="true"><rect class="map-card" width="156" height="72" rx="12"/><rect class="map-icon-bg" x="12" y="20" width="32" height="32" rx="9"/><g class="map-icon" transform="translate(18 26) scale(.83)"><path d="M8 2v5m8-5v5M5 7h14v4a7 7 0 0 1-14 0zM12 18v4"/></g><text class="map-label" x="54" y="34">Table sync</text><text class="map-role" x="54" y="51">integration</text></g></svg>